Plot: The Classic tale from Alexandre Dumas. Edmond Dantes is unjustly sent to prison for 18 years. He escapes to reclaim his fiancée Mercedes and revenge against his nemesis, Mondego.
Total Size : 3.89 GB

[code]General
Complete name : Le Compte De Monte Cristo 1998 (TV mini-series) DVDRip [H.264 - MP4 - AAC] ~ Mindbreaker
Format : H.264/AAC/MP4 - Anamophic
Source : DVD (ripped by unknow)
File size : 3.89 GiB
Duration : 6h 55mn
Overall bit rate : 1 414 Kbps
Episodes : 4


Video
ID : 1
Format : AVC
Format/Info : Advanced Video Codec
Format profile : Main@L3.0
Duration : 1h 37mn | 1h 42mn | 1h 42mn | 1h 32mn
Bit rate : 1250 Kbps
Width : 700 pixels | 700 pixels | 698 pixels | 698 pixels
Height : 456 pixels
Display aspect ratio : 1.638 | 1.638 | 1.633 | 1.633
Frame rate : 25 fps
Bits/(Pixel*Frame) : 0.157
Stream size : 874 MiB (88%) | 913 MiB (88%) | 913 MiB (88%) | 823 MiB (88%)
Writing library : x264 core 79

Audio
ID : 2
Format : AAC
Format/Info : Advanced Audio Codec
Format profile : LC
Duration : 1h 37mn | 1h 42mn | 1h 42mn | 1h 32mn
Bit rate : 160 Kbps
Channel(s) : 2 channels
Sampling rate : 48.0 KHz
Stream size : 112 MiB (11%) | 117 MiB (11%) | 117 MiB (11%) | 105 MiB (11%)
Language : French

Subtitle
Format : SubRip
Language : English
Source : opensubtitles.org
 
http://genesis.1337x.org:1337/announce 
http://tracker.openbittorrent.com/announce 
http://nemesis.1337x.org/announce[/code]

Screens : 

Note : This in NOT the 2002 Hollywood rip-off 'The Count of Monte Cristo' !! this is the French TV-mini Serie (1998) on witch the movie was based on.
